<svg width="429.102" height="71.973" viewBox="0 0 429.102 71.973" xmlns="http://www.w3.org/2000/svg"><g id="svgGroup" stroke-linecap="round" fill-rule="evenodd" font-size="9pt" stroke="#00000000" stroke-width="0.25mm" fill="#ffffff" style="stroke:#00000000;stroke-width:0.25mm;fill:#ffffff"><path d="M 297.022 70.996 L 290.723 70.996 L 290.723 22.998 L 290.284 25.977 L 274.024 70.996 L 270.703 70.996 L 254.297 25.977 L 253.907 22.998 L 253.907 70.996 L 247.608 70.996 L 247.608 0.977 L 250.879 0.977 L 272.119 58.399 L 272.315 60.987 L 272.51 58.399 L 293.701 0.977 L 297.022 0.977 L 297.022 70.996 Z M 374.707 70.996 L 371.387 70.996 L 342.188 20.02 L 341.602 16.993 L 341.602 70.996 L 335.303 70.996 L 335.303 0.977 L 338.575 0.977 L 367.774 52.002 L 368.409 54.981 L 368.409 0.977 L 374.707 0.977 L 374.707 70.996 Z M 429.102 34.18 L 429.102 70.996 L 427.1 70.996 L 423.438 65.381 A 17.316 17.316 0 0 1 417.871 70.191 A 14.771 14.771 0 0 1 411.34 71.957 A 17.545 17.545 0 0 1 410.596 71.973 L 406.934 71.973 Q 403.369 71.973 400.22 70.63 Q 397.071 69.288 394.727 66.944 A 17.327 17.327 0 0 1 391.04 61.475 Q 389.698 58.35 389.698 54.786 L 389.698 17.188 Q 389.698 13.623 391.04 10.498 A 17.327 17.327 0 0 1 394.727 5.03 Q 397.071 2.686 400.22 1.343 Q 403.369 0 406.934 0 L 411.914 0 Q 415.479 0 418.604 1.343 A 17.327 17.327 0 0 1 424.073 5.03 Q 426.416 7.373 427.759 10.498 Q 429.102 13.623 429.102 17.188 L 429.102 20.02 L 422.803 20.996 L 422.803 17.188 A 11.002 11.002 0 0 0 422.177 13.459 A 10.417 10.417 0 0 0 421.924 12.818 A 11.329 11.329 0 0 0 419.532 9.278 A 11.329 11.329 0 0 0 415.992 6.885 A 10.808 10.808 0 0 0 411.84 6.008 A 12.383 12.383 0 0 0 411.621 6.006 L 407.227 6.006 A 11.002 11.002 0 0 0 403.498 6.632 A 10.417 10.417 0 0 0 402.857 6.885 A 11.63 11.63 0 0 0 399.292 9.278 Q 397.754 10.791 396.875 12.818 A 10.808 10.808 0 0 0 395.998 16.969 A 12.383 12.383 0 0 0 395.996 17.188 L 395.996 54.786 A 11.002 11.002 0 0 0 396.622 58.515 A 10.417 10.417 0 0 0 396.875 59.156 A 11.417 11.417 0 0 0 399.292 62.72 Q 400.83 64.258 402.857 65.137 A 10.808 10.808 0 0 0 407.008 66.014 A 12.383 12.383 0 0 0 407.227 66.016 L 411.621 66.016 A 11.002 11.002 0 0 0 415.351 65.39 A 10.417 10.417 0 0 0 415.992 65.137 A 11.126 11.126 0 0 0 419.532 62.72 A 11.63 11.63 0 0 0 421.924 59.156 A 10.808 10.808 0 0 0 422.801 55.005 A 12.383 12.383 0 0 0 422.803 54.786 L 422.803 40.186 L 411.621 40.186 L 411.621 34.18 L 429.102 34.18 Z M 189.209 70.996 L 149.805 70.996 L 149.805 0.977 L 189.209 0.977 L 189.209 6.983 L 156.104 6.983 L 156.104 33.008 L 182.91 33.008 L 182.91 39.014 L 156.104 39.014 L 156.104 64.991 L 189.209 64.991 L 189.209 70.996 Z M 40.381 52.686 L 40.381 54.786 Q 40.381 58.35 38.941 61.475 A 18.094 18.094 0 0 1 35.083 66.944 A 17.984 17.984 0 0 1 29.468 70.63 Q 26.27 71.973 22.705 71.973 L 17.676 71.973 Q 14.112 71.973 10.913 70.63 A 17.984 17.984 0 0 1 5.298 66.944 A 18.094 18.094 0 0 1 1.441 61.475 A 15.787 15.787 0 0 1 0 54.786 L 0 52.002 L 6.299 50.977 L 6.299 54.786 A 10.147 10.147 0 0 0 7.251 59.156 A 11.853 11.853 0 0 0 9.815 62.72 Q 11.426 64.258 13.55 65.137 Q 15.674 66.016 18.018 66.016 L 22.412 66.016 Q 24.756 66.016 26.856 65.137 A 12.078 12.078 0 0 0 30.567 62.72 A 11.853 11.853 0 0 0 33.13 59.156 A 10.147 10.147 0 0 0 34.082 54.786 L 34.082 52.686 Q 34.082 49.073 32.666 46.68 Q 31.25 44.288 28.907 42.603 A 23.642 23.642 0 0 0 25.048 40.364 A 27.561 27.561 0 0 0 23.609 39.746 Q 20.655 38.575 17.53 37.403 Q 14.405 36.231 11.451 34.815 A 21.994 21.994 0 0 1 6.153 31.275 A 15.704 15.704 0 0 1 2.667 26.643 A 18.129 18.129 0 0 1 2.393 26.075 Q 1.165 23.407 1.002 19.675 A 26.768 26.768 0 0 1 0.977 18.506 L 0.977 17.188 Q 0.977 13.623 2.32 10.498 A 17.327 17.327 0 0 1 6.006 5.03 Q 8.35 2.686 11.499 1.343 Q 14.649 0 18.213 0 L 22.705 0 Q 26.27 0 29.395 1.343 A 17.327 17.327 0 0 1 34.864 5.03 Q 37.207 7.373 38.55 10.498 Q 39.893 13.623 39.893 17.188 L 39.893 18.995 L 33.594 20.02 L 33.594 17.188 A 11.002 11.002 0 0 0 32.968 13.459 A 10.417 10.417 0 0 0 32.715 12.818 A 11.329 11.329 0 0 0 30.323 9.278 A 11.329 11.329 0 0 0 26.783 6.885 A 10.808 10.808 0 0 0 22.631 6.008 A 12.383 12.383 0 0 0 22.412 6.006 L 18.506 6.006 A 11.002 11.002 0 0 0 14.777 6.632 A 10.417 10.417 0 0 0 14.136 6.885 A 11.63 11.63 0 0 0 10.572 9.278 Q 9.034 10.791 8.155 12.818 A 10.808 10.808 0 0 0 7.278 16.969 A 12.383 12.383 0 0 0 7.276 17.188 L 7.276 18.506 A 13.298 13.298 0 0 0 7.509 21.066 Q 7.851 22.808 8.692 24.17 A 13.225 13.225 0 0 0 12.288 27.985 A 15.139 15.139 0 0 0 12.451 28.101 Q 14.795 29.737 17.749 30.933 A 1166.589 1166.589 0 0 0 23.78 33.355 A 1574.5 1574.5 0 0 0 23.828 33.374 A 75.921 75.921 0 0 1 29.908 36.109 A 22.918 22.918 0 0 1 35.205 39.771 A 16.103 16.103 0 0 1 38.68 44.467 A 18.635 18.635 0 0 1 38.965 45.069 A 14.94 14.94 0 0 1 40.005 48.417 Q 40.381 50.37 40.381 52.686 Z M 137.793 70.996 L 130.518 70.996 L 111.524 41.114 L 102.881 41.114 L 102.881 70.996 L 96.582 70.996 L 96.582 0.977 L 118.799 0.977 Q 122.364 0.977 125.489 2.32 A 17.327 17.327 0 0 1 130.957 6.006 Q 133.301 8.35 134.644 11.499 Q 135.987 14.649 135.987 18.213 L 135.987 23.877 Q 135.987 27.442 134.644 30.591 Q 133.301 33.741 130.957 36.084 A 17.327 17.327 0 0 1 125.489 39.771 Q 122.364 41.114 118.799 41.114 L 137.793 70.996 Z M 87.598 6.983 L 70.899 6.983 L 70.899 70.996 L 64.6 70.996 L 64.6 6.983 L 47.901 6.983 L 47.901 0.977 L 87.598 0.977 L 87.598 6.983 Z M 232.129 70.996 L 227.491 54.688 L 205.323 54.688 L 200.733 70.996 L 194.19 70.996 L 214.698 0.977 L 218.018 0.977 L 238.623 70.996 L 232.129 70.996 Z M 319.287 70.996 L 312.989 70.996 L 312.989 0.977 L 319.287 0.977 L 319.287 70.996 Z M 129.688 23.877 L 129.688 18.213 A 11.002 11.002 0 0 0 129.062 14.484 A 10.417 10.417 0 0 0 128.809 13.843 A 11.63 11.63 0 0 0 126.416 10.279 Q 124.903 8.741 122.876 7.862 A 10.808 10.808 0 0 0 118.725 6.985 A 12.383 12.383 0 0 0 118.506 6.983 L 102.881 6.983 L 102.881 35.108 L 118.506 35.108 A 11.002 11.002 0 0 0 122.235 34.482 A 10.417 10.417 0 0 0 122.876 34.229 A 11.126 11.126 0 0 0 126.416 31.812 A 11.63 11.63 0 0 0 128.809 28.247 A 10.808 10.808 0 0 0 129.686 24.096 A 12.383 12.383 0 0 0 129.688 23.877 Z M 216.211 16.407 L 207.032 48.682 L 225.83 48.682 L 216.602 16.407 L 216.407 13.819 L 216.211 16.407 Z" vector-effect="non-scaling-stroke"/></g></svg>